<svg xmlns="http://www.w3.org/2000/svg" width="1024" height="1024" viewBox="0 0 1024 1024">
  <defs>
    <linearGradient id="paper" x1="146" y1="98" x2="878" y2="926" gradientUnits="userSpaceOnUse">
      <stop stop-color="#fff8ea"/>
      <stop offset=".54" stop-color="#f6ecd8"/>
      <stop offset="1" stop-color="#e9dcc3"/>
    </linearGradient>
    <radialGradient id="glow" cx="0" cy="0" r="1" gradientTransform="translate(302 268) rotate(54) scale(840)">
      <stop stop-color="#ffffff" stop-opacity=".76"/>
      <stop offset="1" stop-color="#ffffff" stop-opacity="0"/>
    </radialGradient>
    <linearGradient id="island" x1="312" y1="350" x2="742" y2="680" gradientUnits="userSpaceOnUse">
      <stop stop-color="#171717"/>
      <stop offset="1" stop-color="#050505"/>
    </linearGradient>
  </defs>

  <rect width="1024" height="1024" rx="226" fill="url(#paper)"/>
  <rect width="1024" height="1024" rx="226" fill="url(#glow)"/>
  <rect x="26" y="26" width="972" height="972" rx="204" fill="none" stroke="#8c7c61" stroke-opacity=".16" stroke-width="4"/>

  <!-- Original notch-and-console mark, inspired by the reference's restraint. -->
  <path d="M182 354c0-24 20-44 44-44h572c24 0 44 20 44 44v158c0 130-96 216-216 216H398c-120 0-216-86-216-216V354Z" fill="#b5a78f" fill-opacity=".28"/>
  <path d="M170 334c0-24 20-44 44-44h596c24 0 44 20 44 44v170c0 140-104 234-234 234H404c-130 0-234-94-234-234V334Z" fill="url(#island)"/>
  <path d="M300 548h262" fill="none" stroke="#fff9eb" stroke-linecap="round" stroke-width="34"/>
  <circle cx="690" cy="548" r="26" fill="#fff9eb"/>
  <circle cx="690" cy="548" r="10" fill="#0b0b0b"/>
</svg>
